<?xml version="1.0" standalone="no"?>
<!DOCTYPE svg PUBLIC "-//W3C//DTD SVG 20010904//EN"
 "http://www.w3.org/TR/2001/REC-SVG-20010904/DTD/svg10.dtd">
<svg version="1.0" xmlns="http://www.w3.org/2000/svg"
 width="870.000000pt" height="287.000000pt" viewBox="0 0 870.000000 287.000000"
 preserveAspectRatio="xMidYMid meet">

<g transform="translate(0.000000,287.000000) scale(0.100000,-0.100000)"
fill="#000000" stroke="none">
<path d="M1898 2643 c6 -2 18 -2 25 0 6 3 1 5 -13 5 -14 0 -19 -2 -12 -5z"/>
<path d="M2013 2643 c9 -2 23 -2 30 0 6 3 -1 5 -18 5 -16 0 -22 -2 -12 -5z"/>
<path d="M2070 2630 c8 -5 20 -10 25 -10 6 0 3 5 -5 10 -8 5 -19 10 -25 10 -5
0 -3 -5 5 -10z"/>
<path d="M1810 2614 c-40 -27 -100 -87 -100 -100 0 -28 23 -24 59 9 46 41 71
56 126 73 22 7 31 13 20 13 -32 1 -99 -34 -143 -73 -43 -39 -52 -43 -52 -23 0
17 54 69 100 96 19 11 30 21 25 21 -6 0 -22 -7 -35 -16z"/>
<path d="M1953 2613 c9 -2 23 -2 30 0 6 3 -1 5 -18 5 -16 0 -22 -2 -12 -5z"/>
<path d="M2057 2591 c28 -9 73 -35 98 -55 37 -31 49 -36 58 -26 9 10 9 11 -1
6 -7 -4 -30 7 -55 28 -46 38 -104 66 -134 66 -10 -1 5 -9 34 -19z"/>
<path d="M2135 2604 c6 -5 28 -25 50 -44 l40 -35 -30 33 c-17 19 -39 38 -50
44 -11 6 -15 7 -10 2z"/>
<path d="M1943 2563 c15 -2 39 -2 55 0 15 2 2 4 -28 4 -30 0 -43 -2 -27 -4z"/>
<path d="M1836 2529 c-25 -17 -51 -41 -57 -53 -8 -14 0 -9 22 13 19 19 52 42
74 52 22 10 33 19 24 19 -8 0 -37 -14 -63 -31z"/>
<path d="M2060 2546 c0 -2 7 -7 16 -10 8 -3 12 -2 9 4 -6 10 -25 14 -25 6z"/>
<path d="M1943 2523 c15 -2 39 -2 55 0 15 2 2 4 -28 4 -30 0 -43 -2 -27 -4z"/>
<path d="M2121 2505 c15 -16 29 -37 32 -45 5 -13 6 -13 6 1 1 8 -14 28 -31 45
l-33 29 26 -30z"/>
<path d="M1865 2502 c-16 -11 -36 -26 -44 -35 -7 -10 -21 -17 -30 -18 -11 0
-12 -2 -3 -6 8 -3 26 6 40 20 15 13 41 32 57 40 17 9 26 16 20 17 -5 0 -23 -8
-40 -18z"/>
<path d="M2060 2499 c19 -12 46 -31 59 -43 13 -11 21 -15 17 -8 -10 18 -86 72
-100 72 -6 0 5 -10 24 -21z"/>
<path d="M1879 2467 c-39 -26 -52 -67 -21 -67 10 0 27 10 38 23 19 22 19 22
-2 5 -25 -21 -44 -23 -44 -4 0 18 22 36 67 52 25 8 31 13 17 14 -12 0 -36 -10
-55 -23z"/>
<path d="M2011 2480 c38 -11 79 -40 79 -56 0 -20 -18 -17 -47 6 -14 11 -30 20
-36 20 -5 0 7 -11 27 -25 44 -30 66 -32 66 -5 0 23 -65 70 -95 69 -16 -1 -15
-2 6 -9z"/>
<path d="M1958 2453 c6 -2 18 -2 25 0 6 3 1 5 -13 5 -14 0 -19 -2 -12 -5z"/>
<path d="M1926 2384 c-22 -22 -20 -31 2 -11 26 24 68 21 86 -5 9 -12 16 -18
16 -12 0 37 -75 57 -104 28z"/>
<path d="M1901 2334 c0 -11 3 -14 6 -6 3 7 2 16 -1 19 -3 4 -6 -2 -5 -13z"/>
<path d="M652 2310 c-35 -21 -72 -74 -72 -102 0 -17 35 -18 605 -18 477 0 605
3 605 13 -1 28 -48 93 -80 109 -32 16 -79 18 -530 18 -476 0 -496 -1 -528 -20z
m617 -34 c6 -7 9 -21 5 -30 -5 -14 -35 -16 -269 -16 -221 0 -265 2 -275 15
-10 12 -10 18 0 30 18 21 521 23 539 1z m116 -16 c0 -16 -6 -26 -19 -28 -25
-5 -39 12 -31 38 10 31 50 24 50 -10z m124 16 c16 -20 3 -46 -24 -46 -13 0
-26 7 -29 16 -7 19 10 44 29 44 7 0 18 -6 24 -14z m126 -16 c0 -18 -6 -26 -23
-28 -24 -4 -38 18 -28 44 3 9 15 14 28 12 17 -2 23 -10 23 -28z"/>
<path d="M2012 2300 c-15 -25 -58 -26 -86 -2 -21 17 -21 17 -2 -5 24 -29 67
-30 91 -3 10 11 16 22 14 25 -3 2 -10 -5 -17 -15z"/>
<path d="M2042 2128 c-15 -15 -16 -102 -2 -93 6 3 10 26 10 50 0 33 4 45 18
48 13 4 13 5 2 6 -9 0 -21 -4 -28 -11z"/>
<path d="M580 1660 l0 -470 605 0 605 0 -2 468 -3 467 -602 3 -603 2 0 -470z
m1120 0 l0 -380 -520 0 -520 0 0 373 c0 206 3 377 7 380 3 4 237 7 520 7 l513
0 0 -380z"/>
<path d="M1095 1860 c-3 -5 -2 -10 4 -10 5 0 13 5 16 10 3 6 2 10 -4 10 -5 0
-13 -4 -16 -10z"/>
<path d="M1131 1838 c-29 -10 -50 -36 -51 -60 0 -15 -10 -18 -65 -18 l-65 0 0
-130 c0 -109 -2 -130 -15 -130 -18 0 -19 -12 -3 -28 9 -9 72 -12 224 -12 182
0 213 2 225 16 11 13 10 17 -4 25 -15 9 -17 28 -17 134 l0 125 -60 0 c-58 0
-60 1 -74 34 -16 39 -58 58 -95 44z m72 -26 c23 -20 22 -62 -5 -117 -25 -52
-37 -57 -39 -17 l-2 27 -4 -27 c-6 -40 -15 -35 -41 21 -25 55 -27 73 -11 102
20 38 64 43 102 11z m-105 -107 c12 -25 22 -59 22 -75 0 -28 3 -30 35 -30 32
0 35 2 35 30 0 16 10 50 22 75 l22 45 58 0 59 0 -3 -122 -3 -123 -190 0 -190
0 -3 123 -3 122 59 0 58 0 22 -45z m82 -85 c0 -5 -11 -10 -25 -10 -14 0 -25 5
-25 10 0 6 11 10 25 10 14 0 25 -4 25 -10z m195 -140 c-4 -6 -87 -10 -215 -10
-128 0 -211 4 -215 10 -4 7 70 10 215 10 145 0 219 -3 215 -10z"/>
<path d="M987 1723 c-4 -3 -7 -48 -7 -100 l0 -93 175 0 176 0 -3 98 -3 97 -40
2 -40 1 35 -6 35 -7 3 -88 3 -87 -163 2 -163 3 0 85 0 85 33 0 c17 0 32 3 32
7 0 10 -64 11 -73 1z"/>
<path d="M1143 1563 c9 -2 23 -2 30 0 6 3 -1 5 -18 5 -16 0 -22 -2 -12 -5z"/>
<path d="M1230 1841 c0 -6 4 -13 10 -16 6 -3 7 1 4 9 -7 18 -14 21 -14 7z"/>
<path d="M1065 1829 c-4 -6 -5 -12 -2 -15 2 -3 7 2 10 11 7 17 1 20 -8 4z"/>
<path d="M1255 1790 c3 -5 8 -10 11 -10 2 0 4 5 4 10 0 6 -5 10 -11 10 -5 0
-7 -4 -4 -10z"/>
<path d="M2151 2055 c-30 -14 -51 -28 -48 -31 13 -14 107 -52 107 -45 0 5 -18
16 -40 25 -45 18 -51 31 -17 39 20 6 69 36 57 37 -3 0 -29 -11 -59 -25z"/>
<path d="M2013 2009 c12 -7 17 -23 17 -58 0 -46 21 -84 37 -67 3 3 1 6 -5 6
-8 0 -12 18 -12 48 0 47 -20 83 -46 82 -5 0 -1 -5 9 -11z"/>
<path d="M1948 1713 l-78 -4 0 -54 0 -55 365 0 365 0 0 -455 0 -455 -690 0
-690 0 0 205 0 205 -60 0 -60 0 0 -207 c0 -237 7 -275 53 -303 30 -19 53 -20
370 -20 l337 0 0 -73 0 -72 -75 -12 c-42 -7 -97 -23 -123 -36 -42 -21 -47 -27
-47 -57 0 -29 6 -38 39 -56 115 -65 382 -66 508 -3 103 52 54 115 -117 150
l-80 16 -3 71 -3 72 338 0 c318 0 340 1 370 20 22 13 35 31 43 59 7 28 10 198
8 521 l-3 480 -30 30 -30 30 -315 4 c-173 2 -350 2 -392 -1z"/>
<path d="M3000 1347 c0 -40 21 -251 25 -255 2 -2 28 -10 59 -18 49 -13 63 -13
112 0 31 8 57 16 59 18 2 2 10 67 17 146 l14 142 -143 0 -143 0 0 -33z m236
-59 c-3 -24 -8 -68 -11 -99 -6 -56 -7 -57 -45 -67 -26 -6 -52 -6 -79 1 -37 10
-41 14 -41 44 0 26 4 33 20 33 11 0 20 -6 20 -14 0 -18 33 -30 60 -21 11 3 20
15 20 26 0 17 -7 19 -65 19 -58 0 -65 2 -65 20 0 17 8 19 67 22 42 2 68 8 71
16 3 9 -15 12 -66 12 -61 0 -70 3 -75 19 -3 11 -2 22 1 25 3 3 48 6 99 6 l94
0 -5 -42z"/>
<path d="M814 1099 c-19 -22 -19 -22 4 -8 12 8 22 17 22 21 0 12 -6 9 -26 -13z"/>
<path d="M960 1106 c0 -2 7 -7 16 -10 8 -3 12 -2 9 4 -6 10 -25 14 -25 6z"/>
<path d="M831 1054 c0 -11 3 -14 6 -6 3 7 2 16 -1 19 -3 4 -6 -2 -5 -13z"/>
<path d="M2320 963 c-17 -6 -70 -54 -70 -63 0 -9 59 0 65 10 2 4 -8 5 -23 2
l-27 -4 20 20 c11 11 40 25 65 30 35 8 39 10 15 10 -16 0 -37 -2 -45 -5z"/>
<path d="M840 956 c0 -2 8 -10 18 -17 15 -13 16 -12 3 4 -13 16 -21 21 -21 13z"/>
<path d="M2840 925 c0 -11 5 -79 12 -151 l11 -130 64 -17 c60 -16 68 -16 123
0 54 15 60 19 65 47 6 43 25 232 25 257 0 20 -4 21 -150 17 -142 -3 -150 -4
-150 -23z m250 -60 c0 -24 -2 -25 -75 -25 -53 0 -75 -4 -75 -12 0 -10 20 -12
76 -10 l75 4 -7 -64 c-4 -35 -8 -66 -11 -70 -8 -14 -91 -19 -131 -8 -39 10
-42 13 -42 45 0 29 4 35 21 35 13 0 23 -8 26 -21 8 -29 77 -24 81 7 2 14 -2
21 -15 21 -10 -1 -41 0 -70 1 l-51 2 -4 56 c-1 31 -1 58 1 60 2 2 49 4 103 4
98 0 98 0 98 -25z"/>
<path d="M869 863 c-13 -16 -12 -17 4 -4 9 7 17 15 17 17 0 8 -8 3 -21 -13z"/>
<path d="M2240 848 c0 -23 3 -29 9 -19 8 12 4 51 -5 51 -2 0 -4 -15 -4 -32z"/>
<path d="M3690 645 l0 -235 45 0 44 0 3 103 3 102 105 0 105 0 3 -102 3 -103
44 0 45 0 -2 235 -3 235 -42 0 -43 0 0 -100 0 -100 -110 0 -110 0 0 100 0 100
-45 0 -45 0 0 -235z"/>
<path d="M4336 848 c-29 -68 -166 -427 -166 -433 0 -3 19 -5 43 -3 41 3 43 5
62 56 l20 52 99 -2 98 -3 20 -52 c19 -53 19 -53 64 -53 24 0 44 1 44 3 0 1
-40 106 -89 232 l-90 230 -46 3 c-43 3 -46 1 -59 -30z m98 -163 c20 -55 36
-101 36 -102 0 -2 -34 -3 -75 -3 -41 0 -75 1 -75 3 0 3 55 169 65 196 8 20 10
16 49 -94z"/>
<path d="M4805 861 c-50 -22 -101 -79 -116 -129 -6 -22 -10 -73 -8 -115 4 -65
9 -82 35 -119 71 -101 224 -126 322 -51 l34 26 -24 24 -25 25 -34 -21 c-44
-27 -111 -27 -154 -1 -49 30 -68 79 -63 161 4 76 25 110 85 135 44 19 72 18
118 -6 l39 -20 26 26 c25 25 25 25 5 41 -60 46 -168 57 -240 24z"/>
<path d="M5160 645 l0 -235 45 0 45 0 0 105 c0 94 2 105 18 105 30 0 56 -25
121 -119 l64 -91 48 0 c27 0 49 2 49 5 0 9 -144 211 -163 228 -18 15 -18 19
-5 30 8 7 48 55 88 107 l73 95 -33 3 c-56 6 -73 -6 -130 -84 -71 -98 -87 -114
-110 -114 -19 0 -20 7 -20 100 l0 100 -45 0 -45 0 0 -235z"/>
<path d="M5674 644 l-92 -235 47 3 c46 3 46 3 65 56 l19 53 100 -3 100 -3 17
-50 c17 -50 17 -50 63 -53 l47 -3 -18 48 c-11 26 -52 132 -92 236 l-73 187
-46 0 -46 0 -91 -236z m174 54 c18 -51 32 -99 32 -105 0 -9 -21 -13 -70 -13
-38 0 -70 3 -70 8 0 14 65 202 70 202 3 0 20 -42 38 -92z"/>
<path d="M6080 845 l0 -35 70 0 70 0 0 -200 0 -200 45 0 45 0 0 200 0 200 70
0 70 0 0 35 0 35 -185 0 -185 0 0 -35z"/>
<path d="M6540 645 l0 -235 45 0 44 0 3 103 3 102 105 0 105 0 3 -102 3 -103
44 0 45 0 0 235 0 235 -45 0 -45 0 0 -100 0 -100 -110 0 -110 0 0 100 0 100
-45 0 -45 0 0 -235z"/>
<path d="M7192 869 c-55 -16 -118 -86 -137 -152 -53 -185 93 -346 280 -307
133 28 209 157 175 298 -14 61 -68 128 -124 153 -45 20 -138 24 -194 8z m156
-79 c58 -26 87 -88 79 -167 -7 -63 -25 -96 -70 -123 -58 -36 -158 -18 -192 33
-61 93 -31 223 60 263 42 18 73 17 123 -6z"/>
<path d="M7630 645 l0 -235 35 0 35 0 0 155 c0 85 3 155 8 155 4 -1 61 -70
127 -155 111 -143 122 -155 153 -155 l32 0 0 235 0 235 -35 0 -35 0 0 -155 c0
-85 -4 -155 -8 -155 -5 0 -64 70 -131 155 -108 137 -126 155 -152 155 l-29 0
0 -235z"/>
<path d="M860 696 c0 -10 9 -16 21 -16 24 0 21 23 -4 28 -10 2 -17 -3 -17 -12z"/>
<path d="M860 554 c0 -87 -2 -96 -20 -101 -30 -8 -24 -23 10 -23 41 0 50 23
50 129 0 84 -1 91 -20 91 -19 0 -20 -7 -20 -96z"/>
<path d="M956 637 c-26 -19 -14 -51 30 -76 42 -25 36 -45 -12 -39 -23 3 -34 0
-34 -9 0 -17 81 -18 98 -1 22 22 13 48 -23 70 -40 23 -41 43 -4 43 13 0 26 5
29 10 8 16 -63 17 -84 2z"/>
<path d="M613 603 c-14 -5 -18 -39 -5 -47 5 -3 8 5 8 17 -1 13 5 22 14 22 9 0
15 -9 14 -23 0 -16 2 -20 10 -12 7 7 7 16 0 27 -12 19 -23 24 -41 16z"/>
<path d="M772 513 c2 -10 10 -18 18 -18 8 0 16 8 18 18 2 12 -3 17 -18 17 -15
0 -20 -5 -18 -17z"/>
<path d="M2563 464 c-7 -19 2 -178 11 -193 10 -16 171 -14 183 2 11 14 53 124
53 138 0 5 -11 9 -25 9 -18 0 -25 5 -25 20 0 16 -7 20 -34 20 -19 0 -38 5 -41
10 -3 6 -31 10 -61 10 -40 0 -56 -4 -61 -16z m112 -4 c3 -5 22 -10 41 -10 24
0 34 -5 34 -15 0 -12 -14 -15 -65 -15 -62 0 -66 -1 -75 -27 -25 -69 -29 -69
-29 5 l-1 72 44 0 c25 0 48 -4 51 -10z m-59 -136 c-4 -9 -9 -15 -11 -12 -3 3
-3 13 1 22 4 9 9 15 11 12 3 -3 3 -13 -1 -22z"/>
</g>
</svg>
